<svg xmlns="http://www.w3.org/2000/svg" style="height:512px;width:512px" viewBox="0 0 512 512">
  <defs>
    <filter id="a" width="1.15" height="1.15" x="-.07" y="-.07">
      <feFlood flood-color="rgba(0, 0, 0, 1)" result="flood"/>
      <feComposite in="flood" in2="SourceGraphic" operator="atop" result="composite"/>
      <feGaussianBlur in="composite" result="blur" stdDeviation="15"/>
      <feOffset result="offset"/>
      <feComposite in="SourceGraphic" in2="offset"/>
    </filter>
  </defs>
  <path fill="#ffeb00" d="M496 136s-40.5 85.32-51.44 129c-14.33 57.12 2.08 100.3-18.75 155.68-36 64.97-38.43 75.47-169.81 75.33-48.13-.04-186.02-36.76-186.02-36.76C50.97 454.35 16 457.24 16 436c0-21.23 24.88-36.74 46.97-36.79l87.03 7.64c21.14-1.32 43.29-13.7 43.96-41.36-.35-40.92-4.4-72.35-25.18-105.6L88.11 134.03C83.3 124 82.15 106.93 96.1 99.3c13.94-7.63 29.79 3.7 35.2 13.58l90.11 122.57c9.62 8.95 26.74 10.68 25.28-8.38L206.9 44.65C204.42 31.7 211 16 226 16c19.69 0 31.8 7.51 31.42 19.41l43.75 179.99c3.42 8.76 15.54 7.59 18.8-.5l12.46-175.02c.64-5.58 7.93-15.31 21.9-13.28 13.98 2.03 22.04 17 20.56 22.8l-4.04 172.93c2.83 15.32 14.88 17.56 24.26 9l61.22-109.48c3.72-9.18 18.29-11.1 26.72-7.46C490.89 119.5 496 126.35 496 136z" filter="url(#a)" transform="matrix(.927 0 0 .927 18.6 18.6)"/>
</svg>
